<mxfile host="65bd71144e">
    <diagram id="SQ31T5xqvt6bAkhT0Tfv" name="Page-1">
        <mxGraphModel dx="1069" dy="381" grid="1" gridSize="10" guides="1" tooltips="1" connect="1" arrows="1" fold="1" page="1" pageScale="1" pageWidth="850" pageHeight="1100" math="0" shadow="0">
            <root>
                <mxCell id="0"/>
                <mxCell id="1" parent="0"/>
                <mxCell id="2" value="" style="whiteSpace=wrap;html=1;fillColor=#99CCFF;" parent="1" vertex="1">
                    <mxGeometry x="20" y="20" width="810" height="410" as="geometry"/>
                </mxCell>
                <mxCell id="3" value="" style="whiteSpace=wrap;html=1;fillColor=#3399FF;" parent="1" vertex="1">
                    <mxGeometry x="20" y="20" width="810" height="60" as="geometry"/>
                </mxCell>
                <mxCell id="4" value="Home" style="whiteSpace=wrap;html=1;fillColor=#007FFF;" parent="1" vertex="1">
                    <mxGeometry x="30" y="30" width="130" height="40" as="geometry"/>
                </mxCell>
                <mxCell id="5" value="Listings" style="whiteSpace=wrap;html=1;fillColor=#007FFF;" parent="1" vertex="1">
                    <mxGeometry x="320" y="30" width="160" height="40" as="geometry"/>
                </mxCell>
                <mxCell id="6" value="Login/Logout" style="whiteSpace=wrap;html=1;fillColor=#007FFF;" parent="1" vertex="1">
                    <mxGeometry x="680" y="30" width="140" height="40" as="geometry"/>
                </mxCell>
                <mxCell id="7" value="Sign Up" style="whiteSpace=wrap;html=1;fillColor=#007FFF;" parent="1" vertex="1">
                    <mxGeometry x="500" y="30" width="160" height="40" as="geometry"/>
                </mxCell>
                <mxCell id="8" value="Plant Info" style="whiteSpace=wrap;html=1;fillColor=#007FFF;" parent="1" vertex="1">
                    <mxGeometry x="180" y="30" width="130" height="40" as="geometry"/>
                </mxCell>
                <mxCell id="9" value="WELCOME TO PLANT APP" style="whiteSpace=wrap;html=1;fillColor=#007FFF;" parent="1" vertex="1">
                    <mxGeometry x="205" y="140" width="440" height="50" as="geometry"/>
                </mxCell>
                <mxCell id="10" value="Signup or Login" style="whiteSpace=wrap;html=1;fillColor=#3399FF;" parent="1" vertex="1">
                    <mxGeometry x="320" y="200" width="200" height="60" as="geometry"/>
                </mxCell>
                <mxCell id="12" value="View Listings" style="whiteSpace=wrap;html=1;fillColor=#3399FF;" parent="1" vertex="1">
                    <mxGeometry x="320" y="270" width="200" height="50" as="geometry"/>
                </mxCell>
                <mxCell id="13" value="View Listings" style="whiteSpace=wrap;html=1;fillColor=#3399FF;" vertex="1" parent="1">
                    <mxGeometry x="320" y="330" width="200" height="50" as="geometry"/>
                </mxCell>
            </root>
        </mxGraphModel>
    </diagram>
</mxfile>